<svg xmlns="http://www.w3.org/2000/svg" width="168" height="29" viewBox="0 0 168 29">
    <g fill="none" fill-rule="evenodd">
        <path fill="#0093A8" d="M50.325 11.438L43.354 24.4h-2.855L33.55 11.438h3.834l4.553 8.605 4.554-8.605zM58.569 16.552h6.256v-1.78h-6.256v1.78zm9.65-1.959v4.943h-9.65v1.335h9.65v3.406H58.39c-1.752 0-3.216-1.469-3.216-3.228v-6.456c0-1.759 1.464-3.228 3.216-3.228h6.611c1.775 0 3.217 1.469 3.217 3.228zM85.168 11.365v3.406h-6.944v9.506H74.83v-9.684c0-1.759 1.464-3.228 3.24-3.228h7.098zM91.38 24.277h3.393V11.365H91.38v12.912zm0-14.311h3.393V6.537H91.38v3.429zM104.756 9.99v1.375h4.77v3.406h-4.77v9.506h-3.394V9.79a3.244 3.244 0 0 1 3.239-3.228h4.925V9.99h-4.77z"/>
        <path fill="#572680" d="M119.222 16.523h6.273v-1.786h-6.273v1.786zm9.677-1.965v4.956h-9.677v1.34h9.677v3.415h-9.855c-1.758 0-3.226-1.473-3.226-3.237v-6.474c0-1.764 1.468-3.237 3.226-3.237h6.629c1.78 0 3.226 1.473 3.226 3.237zM145.115 28.913h-7.83v-3.438h7.652v-1.206h-6.451c-1.78 0-3.248-1.473-3.248-3.237v-9.666h3.404v9.488h6.295v-9.488h3.404v14.31a3.233 3.233 0 0 1-3.226 3.237M157.973 16.523h6.273v-1.786h-6.273v1.786zm9.677-1.965v4.956h-9.677v1.34h9.677v3.415h-9.855c-1.757 0-3.226-1.473-3.226-3.237v-6.474c0-1.764 1.469-3.237 3.226-3.237h6.63c1.78 0 3.225 1.473 3.225 3.237zM7.93 14.191c0 3.444 2.783 6.236 6.214 6.236 3.433 0 6.214-2.792 6.214-6.236s-2.781-6.236-6.214-6.236c-3.431 0-6.214 2.792-6.214 6.236"/>
        <path fill="#0093A8" d="M4.726 16.664H.233c1.023 5.845 5.622 10.461 11.447 11.49V23.64a9.78 9.78 0 0 1-6.954-6.976M16.609.229v4.512a9.782 9.782 0 0 1 6.953 6.976h4.495C27.033 5.872 22.433 1.256 16.609.23M23.88 23.96h-7.272v4.408h11.663V16.664H23.88zM4.409 5.336V4.42h7.27V.014H.017v11.703H4.41z"/>
    </g>
</svg>
